<svg width="24" height="24" viewBox="0 0 24 24"  xmlns="http://www.w3.org/2000/svg">
<path d="M9.04228 2C9.25609 0.861465 10.2555 0 11.4561 0H12.5439C13.7445 0 14.7439 0.861465 14.9577 2H22.25C22.6642 2 23 2.33579 23 2.75C23 3.16421 22.6642 3.5 22.25 3.5H1.75C1.33579 3.5 1 3.16421 1 2.75C1 2.33579 1.33579 2 1.75 2H9.04228Z" fill="#CCC" />
<path fill-rule="evenodd" clip-rule="evenodd" d="M3 5L4.57531 22.1826C4.6697 23.2121 5.53314 24 6.56696 24H17.608C18.6496 24 19.5168 23.2006 19.6014 22.1625L21 5H3ZM4.64381 6.5L6.06905 22.0456C6.09265 22.303 6.30851 22.5 6.56696 22.5H17.608C17.8684 22.5 18.0852 22.3001 18.1063 22.0406L19.3728 6.5H4.64381Z" fill="#CCC" />
</svg>
