<svg width="24" height="24" viewBox="0 0 24 24"  xmlns="http://www.w3.org/2000/svg" fill="#CCA700">
<g clip-path="url(#warning_outline_clip0)">
<path d="M11.329 15.8785C11.3909 16.2332 11.5036 16.5 11.5036 16.5H12.528C12.528 16.5 12.6364 16.2327 12.7189 15.7015C13.0827 13.3568 13.4071 11.0078 13.4996 8.62335C13.5176 8.21002 12.8574 8 11.9737 8C11.1427 8 10.4796 8.20776 10.5005 8.62335C10.5968 11.0517 10.9128 13.4977 11.329 15.8785Z" />
<path d="M10.5 19.5C10.5 18.6716 11.1716 18 12 18C12.8284 18 13.5 18.6716 13.5 19.5C13.5 20.3284 12.8284 21 12 21C11.1716 21 10.5 20.3284 10.5 19.5Z" />
<path fill-rule="evenodd" clip-rule="evenodd" d="M23.866 22.3032C24.2705 23.0749 23.7104 24 22.8389 24H1.16114C0.289556 24 -0.270464 23.0749 0.133958 22.3032L10.9728 1.62121C11.4069 0.79293 12.5931 0.79293 13.0272 1.62121L23.866 22.3032ZM22.2757 22.5L12 2.89265L1.72434 22.5H22.2757Z" />
</g>
<defs>
<clipPath id="warning_outline_clip0">
<rect width="24" height="24" />
</clipPath>
</defs>
</svg>
