<svg width="24" height="24" viewBox="0 0 24 24" fill="none" xmlns="http://www.w3.org/2000/svg">
<path d="M1.75 21V3C1.75 2.30964 2.30964 1.75 3 1.75H18.4504C18.5314 1.75 18.6073 1.78921 18.6542 1.85521L22.2038 6.85168C22.2339 6.89398 22.25 6.94458 22.25 6.99647V21C22.25 21.6904 21.6904 22.25 21 22.25H3C2.30964 22.25 1.75 21.6904 1.75 21ZM6.5 2.25C5.80964 2.25 5.25 2.80964 5.25 3.5V5.5C5.25 6.19036 5.80965 6.75 6.5 6.75H17.5C18.1904 6.75 18.75 6.19036 18.75 5.5V3.5C18.75 2.80964 18.1904 2.25 17.5 2.25H6.5ZM12 18.75C14.6234 18.75 16.75 16.6234 16.75 14C16.75 11.3766 14.6234 9.25 12 9.25C9.37665 9.25 7.25 11.3766 7.25 14C7.25 16.6234 9.37665 18.75 12 18.75Z" fill="black" stroke="black" stroke-width="1.5"/>
</svg>
