<svg viewBox="0 0 24 24" fill="none" xmlns="http://www.w3.org/2000/svg">
<path d="M6.62069 10.75C6.00175 10.75 5.5 11.3096 5.5 12C5.5 12.6904 6.00175 13.25 6.62069 13.25H17.3793C17.9983 13.25 18.5 12.6904 18.5 12C18.5 11.3096 17.9983 10.75 17.3793 10.75H6.62069Z" fill="#DEEEEA"/>
<path fill-rule="evenodd" clip-rule="evenodd" d="M24 12C24 18.6274 18.6274 24 12 24C5.37258 24 0 18.6274 0 12C0 5.37258 5.37258 0 12 0C18.6274 0 24 5.37258 24 12ZM22 12C22 17.5228 17.5228 22 12 22C6.47715 22 2 17.5228 2 12C2 6.47715 6.47715 2 12 2C17.5228 2 22 6.47715 22 12Z" fill="#DEEEEA"/>
</svg>
