<svg viewBox="0 0 24 24" fill="none" xmlns="http://www.w3.org/2000/svg">
<path fill-rule="evenodd" clip-rule="evenodd" d="M12 24C18.6274 24 24 18.6274 24 12C24 5.37258 18.6274 0 12 0C5.37258 0 0 5.37258 0 12C0 18.6274 5.37258 24 12 24ZM18.6281 8.98861C19.1741 8.36555 19.1116 7.41786 18.4886 6.87188C17.8655 6.3259 16.9178 6.38838 16.3719 7.01143L10.3663 13.8648L7.58269 10.9619C7.00933 10.3639 6.05979 10.344 5.46184 10.9173C4.86389 11.4907 4.84395 12.4402 5.41731 13.0382L10.4658 18.3032L18.6281 8.98861Z" fill="#27B974"/>
</svg>
