<svg width="96" height="64" viewBox="0 0 96 64" fill="none" xmlns="http://www.w3.org/2000/svg">
<g clip-path="url(#clip0_27_375)">
<path fill-rule="evenodd" clip-rule="evenodd" d="M47.5789 11.1242H55.781L52.0674 22.2653H43.8821L47.5789 11.1242ZM0 39.5958C0 41.1116 0.606316 42.56 1.67579 43.6295C2.74526 44.6989 4.20211 45.2968 5.71789 45.2968V33.9705C4.21895 33.9705 2.77053 34.56 1.70105 35.6126C0.631579 36.6653 0.0168421 38.0968 0 39.5958H0ZM89.44 45.3811V33.9789C90.9558 33.9789 92.4126 34.5768 93.4821 35.6463C94.5516 36.7158 95.1579 38.1642 95.1579 39.68C95.1579 41.1958 94.56 42.6442 93.4821 43.7137C92.4126 44.7832 90.9558 45.3811 89.44 45.3811ZM27.8989 36.6737C27.8989 35.9326 28.1937 35.2253 28.7158 34.7116C29.2379 34.1895 29.9453 33.8947 30.6863 33.8947H36.5474C37.2884 33.8947 37.9958 34.1895 38.5179 34.7116C39.04 35.2337 39.3347 35.9411 39.3347 36.6737V42.5179C39.3347 43.2589 39.04 43.9663 38.5179 44.4884C37.9958 45.0105 37.2884 45.3053 36.5474 45.3053H30.6863C29.9453 45.3053 29.2379 45.0105 28.7158 44.4884C28.1937 43.9663 27.8989 43.2589 27.8989 42.5179V36.6737ZM55.8232 36.6737C55.8232 35.9326 56.1179 35.2253 56.64 34.7116C57.1621 34.1895 57.8695 33.8947 58.6105 33.8947H64.4716C65.2126 33.8947 65.92 34.1895 66.4421 34.7116C66.9642 35.2337 67.2589 35.9411 67.2589 36.6737V42.5179C67.2589 43.2589 66.9642 43.9663 66.4421 44.4884C65.92 45.0105 65.2126 45.3053 64.4716 45.3053H58.6105C57.8695 45.3053 57.1621 45.0105 56.64 44.4884C56.1179 43.9663 55.8232 43.2589 55.8232 42.5179V36.6737ZM19.6632 29.0189V50.0968C19.6632 50.9811 20.0168 51.8316 20.6484 52.4632C21.28 53.0863 22.1305 53.44 23.0232 53.44H72.16C72.5979 53.44 73.0358 53.3558 73.44 53.1874C73.8442 53.0189 74.2147 52.7747 74.5263 52.4632C74.8379 52.1516 75.0821 51.7811 75.2505 51.3768C75.4189 50.9726 75.5032 50.5347 75.5032 50.0968V28.9347C75.5032 28.4968 75.4189 28.0589 75.2505 27.6547C75.0821 27.2505 74.8379 26.88 74.5263 26.5684C74.2147 26.2568 73.8442 26.0126 73.44 25.8442C73.0358 25.6758 72.5979 25.5916 72.16 25.5916H23.0147C22.5684 25.5916 22.1221 25.6842 21.7095 25.8526C21.2968 26.0295 20.9263 26.2821 20.6147 26.6021C20.3032 26.9221 20.0589 27.3011 19.8905 27.7137C19.7305 28.1263 19.6463 28.5726 19.6632 29.0189ZM18.2147 54.9474C19.52 56.2526 21.2884 56.9853 23.1411 56.9937L24.5558 57.0526V64.0084H23.1411C19.4442 64.0084 15.8989 62.5432 13.28 59.9326C10.6695 57.3221 9.19579 53.7853 9.19579 50.0968V29.1789C9.19579 25.4905 10.6611 21.9537 13.28 19.3432C15.8905 16.7326 19.4442 15.2674 23.1411 15.2674H24.5558V22.2232H23.1411C21.2884 22.2232 19.52 22.9558 18.2147 24.2611C16.9095 25.5663 16.1768 27.3347 16.1768 29.1789V50.0379C16.1768 51.8821 16.9179 53.6421 18.2232 54.9474H18.2147ZM72.2274 15.2758H70.8295V22.2316H72.0253C72.9432 22.2316 73.8442 22.4084 74.6947 22.7621C75.5368 23.1074 76.3116 23.6211 76.96 24.2695C77.6084 24.9179 78.1221 25.6842 78.4674 26.5263C78.821 27.3684 78.9979 28.2779 78.9979 29.1874V50.1053C78.9979 51.9495 78.2568 53.7095 76.9516 55.0147C75.6463 56.32 73.8779 57.0526 72.0253 57.0526H70.8295V64.0084H72.2274C75.8821 63.9579 79.3768 62.4674 81.9453 59.8737C84.5137 57.28 85.9621 53.7768 85.9621 50.1221V29.2632C85.9789 25.6 84.5474 22.0716 81.9705 19.4526C79.4021 16.8337 75.8989 15.3347 72.2189 15.2758H72.2274ZM51.2758 0H43.0905L39.3937 11.1242H47.5789L51.2758 0Z" fill="#3DDC91"/>
</g>
<defs>
<clipPath id="clip0_27_375">
<rect width="95.1579" height="64" fill="white"/>
</clipPath>
</defs>
</svg>
