<svg width="24" height="24" viewBox="0 0 24 24" fill="none" xmlns="http://www.w3.org/2000/svg">
<path d="M11.0085 0.0558801C9.27865 0.280337 7.89189 0.662474 6.63137 1.26194C5.7768 1.66841 4.57522 2.48154 4.25029 2.87345C4.24619 2.88054 4.24217 2.88761 4.23824 2.89467C4.09671 2.75468 3.92066 2.58037 3.70104 2.36273C3.0405 1.70799 2.8077 1.61912 2.49478 1.90231C2.3261 2.055 2.30859 2.2645 2.30859 4.13599C2.30859 6.15478 2.31368 6.20487 2.53488 6.3597C2.71984 6.48928 3.10514 6.51819 4.64987 6.51819C6.19461 6.51819 6.57989 6.48928 6.76485 6.3597C7.18028 6.06877 7.0625 5.72949 6.26881 4.9305C5.89456 4.55371 5.6226 4.27954 5.42389 4.07895C5.5242 4.03281 5.6224 3.96983 5.71522 3.88835C8.40433 1.52712 14.4172 0.995241 18.319 2.77339C19.1337 3.14463 19.7731 3.55354 20.2562 4.01233L20.5459 4.28748L19.8236 5.0147C19.0299 5.81369 18.9121 6.15297 19.3275 6.4439C19.5125 6.57348 19.8978 6.6024 21.4425 6.6024C22.9872 6.6024 23.3725 6.57348 23.5575 6.4439C23.7787 6.28907 23.7838 6.23899 23.7838 4.2202C23.7838 2.3487 23.7663 2.13921 23.5976 1.98652C23.2847 1.70332 23.0519 1.79219 22.3913 2.44693L21.7567 3.07582L21.2528 2.60441C19.4391 0.907901 16.3812 -0.0353281 12.8123 0.00101259C11.9882 0.00935975 11.1765 0.034096 11.0085 0.0558801Z" fill="#6D7584"/>
<path fill-rule="evenodd" clip-rule="evenodd" d="M10.1525 5.01654C10.3518 4.6052 10.7803 4.22167 11.2099 4.07034C11.3058 4.03655 11.625 4.00493 11.9193 4.00024C12.514 3.99065 13.0511 4.26484 13.4662 4.78988C13.699 5.08446 13.7118 5.2578 13.7675 7.85697L13.8256 11.6376L14.4928 11.6703C15.0844 11.6992 15.5064 11.8661 18.213 13.1421C20.9781 14.4455 21.2982 14.6248 21.6073 15.044C21.8622 15.3896 21.961 15.6665 21.9972 16.1378C22.0437 16.7401 21.435 21.4407 21.2036 22.2672C21.0309 22.8832 20.5642 23.4221 19.9624 23.7C19.4138 23.9534 19.3471 23.9574 15.2403 23.9894C11.6505 24.0174 10.9837 23.9971 10.4157 23.8426C9.79142 23.6729 9.61378 23.5305 7.04418 21.1392C5.55239 19.7508 4.25753 18.4825 4.16685 18.3206C3.7238 17.5294 4.1994 16.5766 5.15038 16.3499C5.31609 16.3105 6.98644 16.5678 8.43117 16.839C8.88382 16.9239 9.31433 17.0102 9.66947 17.0892L9.93105 17.1473L9.93361 10.7948C9.93605 5.85665 9.94953 5.43572 10.1525 5.01654ZM12.191 5.6118C12.2228 5.94682 12.2395 6.56526 12.2677 7.88457L12.3258 11.6607C12.338 12.4515 12.9621 13.0971 13.7522 13.1358L14.4194 13.1685L14.4307 13.169C14.516 13.1729 14.6138 13.1774 15.008 13.3334C15.0782 13.3611 15.1547 13.3925 15.2386 13.4279C15.7085 13.626 16.4126 13.9516 17.5734 14.4989C18.9759 15.16 19.6906 15.505 20.098 15.7332C20.2935 15.8428 20.3627 15.8954 20.3817 15.911L20.3835 15.9125L20.3874 15.9174C20.3904 15.9212 20.3945 15.9267 20.4 15.9342C20.4347 15.9811 20.452 16.0095 20.4605 16.0247C20.468 16.0382 20.4702 16.0444 20.4714 16.0475C20.4732 16.0527 20.4885 16.0953 20.5001 16.2341C20.5001 16.2341 20.4993 16.2914 20.4894 16.4394C20.4783 16.6042 20.4592 16.8224 20.4329 17.0833C20.3806 17.6032 20.3035 18.2582 20.2171 18.9258C20.0438 20.2641 19.8559 21.468 19.7703 21.8196C19.7664 21.8358 19.7626 21.8501 19.7591 21.8626C19.7098 22.0385 19.5527 22.237 19.3335 22.3382C19.2642 22.3702 19.2397 22.3808 19.2234 22.3872L19.2155 22.3901L19.211 22.3914C19.1929 22.3959 19.1085 22.4143 18.844 22.4305C18.2968 22.4641 17.3088 22.4732 15.2286 22.4894C13.4256 22.5035 12.3924 22.5049 11.7404 22.4851C11.0994 22.4656 10.9264 22.427 10.8093 22.3952C10.6999 22.3654 10.6832 22.3564 10.6759 22.3525L10.6745 22.3518C10.6541 22.3412 10.5805 22.3002 10.3978 22.1537C10.0085 21.8416 9.37254 21.257 8.06605 20.0411C7.32737 19.3537 6.64024 18.6985 6.12976 18.1984C6.03015 18.1009 5.93822 18.0101 5.85463 17.9269C6.09822 17.9619 6.38314 18.006 6.69114 18.0563C7.59292 18.2039 8.63808 18.3965 9.34419 18.5535L9.60577 18.6116C10.0498 18.7102 10.5146 18.6021 10.8694 18.3175C11.2243 18.033 11.4309 17.6028 11.431 17.1479L11.4336 10.7954C11.4348 8.31134 11.4391 7.00709 11.4668 6.26725C11.4806 5.90025 11.4985 5.73351 11.5112 5.65666C11.5146 5.65169 11.5191 5.64549 11.5247 5.63821C11.5424 5.6156 11.5662 5.58956 11.5951 5.5637C11.6164 5.54463 11.6374 5.52841 11.6565 5.51531C11.7405 5.50758 11.8446 5.50162 11.9434 5.50005C11.9944 5.49923 12.0766 5.50537 12.191 5.6118ZM5.36623 17.4231C5.35483 17.41 5.3507 17.4044 5.3507 17.4044C5.3507 17.4044 5.35692 17.4113 5.36623 17.4231Z" fill="#6D7584"/>
</svg>
