<svg width="24" height="24" viewBox="0 0 24 24" fill="#0078D4" xmlns="http://www.w3.org/2000/svg">
<path fill-rule="evenodd" clip-rule="evenodd" d="M21 22V12.7014L19.5 14.2014V22C19.5 22.2761 19.2761 22.5 19 22.5H5C4.72386 22.5 4.5 22.2761 4.5 22V7.25H9.5C9.69891 7.25 9.88968 7.17098 10.0303 7.03033C10.171 6.88968 10.25 6.69891 10.25 6.5V1.5H19C19.2761 1.5 19.5 1.72386 19.5 2V2.8877L20.9266 1.46113C20.6913 0.618307 19.9179 0 19 0H9.82843C9.29799 0 8.78929 0.210714 8.41421 0.585787L3.58579 5.41421C3.21071 5.78929 3 6.29799 3 6.82843V22C3 23.1046 3.89543 24 5 24H19C20.1046 24 21 23.1046 21 22ZM8.75 2.37132L5.37132 5.75H8.75V2.37132Z" />
<path d="M22.5451 4.42694C21.977 3.85769 21.0558 3.85769 20.4877 4.42694L19.5961 5.32022C19.5203 5.39613 19.5203 5.51918 19.5961 5.59508L22.408 8.41238C22.4837 8.48828 22.6066 8.48828 22.6823 8.41238L23.5739 7.5191C24.142 6.94985 24.142 6.0269 23.5739 5.45765L22.5451 4.42694Z" />
<path d="M21.3993 9.69783C21.4755 9.62145 21.475 9.49742 21.398 9.42173L18.5607 6.62998C18.4847 6.55525 18.3628 6.5558 18.2876 6.63122L9.492 15.4437C9.46197 15.4738 9.44263 15.5129 9.43694 15.5551L9.00179 18.7796C8.98473 18.906 9.09181 19.0143 9.21816 18.9984L12.4659 18.5905C12.5087 18.5852 12.5485 18.5657 12.579 18.5351L21.3993 9.69783Z" />
</svg>
