<svg width="24" height="24" viewBox="0 0 24 24" fill="none" xmlns="http://www.w3.org/2000/svg">
<path d="M8.58353 14.3158L12.4192 19.732C12.5211 19.8759 12.5865 20.0425 12.6098 20.2173L12.868 22.1571C13.0086 23.2132 13.9103 24.0013 14.9757 23.9993C16.148 23.997 17.0966 23.0449 17.0946 21.8726L17.0906 19.6062C17.0904 19.4833 17.0695 19.3614 17.0289 19.2455L16.1506 16.7372H21.9986C23.287 16.7372 24.2393 15.5367 23.9461 14.282L21.203 2.54518C20.9915 1.64034 20.1847 1.00035 19.2554 1.00035H14.5605L14.5601 0.999268L8.5835 0.99996L8.58353 14.3158Z" fill="black"/>
<path d="M2 14.3154C0.89543 14.3154 0 13.42 0 12.3154V2.99962C0 1.89505 0.895431 0.99962 2 0.99962H7.35598V14.3154H2Z" fill="black"/>
</svg>
